<svg width="40" height="40" viewBox="0 0 40 40" fill="none" xmlns="http://www.w3.org/2000/svg">
<rect width="40" height="40" rx="20" fill="white"/>
<g clip-path="url(#clip0_32_49)">
<path fill-rule="evenodd" clip-rule="evenodd" d="M17.4299 29.6872C16.0613 28.9743 14.9416 28.371 14.9418 28.3464C14.9424 28.2831 18.2265 26.6199 18.343 26.6239C18.396 26.6257 18.7807 26.8028 19.1977 27.0174L19.9561 27.4074L20.7844 26.9817L21.6126 26.5559L22.969 27.1654C25.0128 28.0838 25.225 28.1844 25.1918 28.2182C25.1476 28.2631 24.4146 28.6569 22.4257 29.704C21.4645 30.2101 20.5316 30.7063 20.3525 30.8067C20.1734 30.9071 20.0025 30.9879 19.9726 30.9863C19.9428 30.9847 18.7985 30.4002 17.4299 29.6872ZM11.4273 26.5787L10.0026 25.8428V22.613C10.0026 20.8365 10.0213 19.3832 10.0442 19.3832C10.0671 19.3832 10.768 19.687 11.6018 20.0584L13.1179 20.7336V24.1381L13.8587 23.7345C14.4296 23.4237 15.0008 23.1136 15.5723 22.8041L16.5451 22.2774L16.978 22.4732C17.2495 22.5961 17.5204 22.7203 17.7908 22.8456C17.9997 22.9429 18.5126 23.174 18.9305 23.3591C19.3484 23.5443 19.7352 23.7306 19.7901 23.773C19.863 23.8294 18.9744 24.3205 16.5037 25.5893C14.6413 26.5457 13.0578 27.3252 12.9847 27.3215C12.9117 27.3177 12.2108 26.9835 11.4273 26.5787ZM25.4485 26.3721C24.4782 25.934 23.6837 25.5581 23.6828 25.5367C23.6819 25.5153 24.2108 25.2008 24.858 24.838C25.5053 24.4751 26.0349 24.1588 26.0349 24.1349C26.0349 24.1112 25.4621 23.8336 24.7622 23.5181C24.0621 23.2026 22.2927 22.4035 20.8301 21.7423L15.9292 19.5269C14.6964 18.9696 13.5852 18.4673 13.4598 18.4105C10.9417 17.2705 10.2496 16.9542 10.1545 16.8999C10.059 16.8453 10.0373 16.5277 10.0203 14.9337L10 13.0325L11.274 12.3834L12.548 11.7342L14.3146 12.5315C15.2862 12.97 16.0812 13.3518 16.0812 13.3799C16.0812 13.4079 15.9016 13.5249 15.6823 13.64C15.4628 13.755 15.0098 14.0097 14.6755 14.2061C14.3412 14.4025 14.0078 14.5826 13.9347 14.6065C13.8615 14.6303 13.8027 14.672 13.8039 14.6992C13.8051 14.7263 14.583 15.0959 15.5325 15.5204C17.3767 16.345 18.788 16.9805 21.8178 18.3508C23.1727 18.9633 24.5277 19.5756 25.8829 20.1874C27.0739 20.725 28.4587 21.3529 28.9602 21.5827L29.872 22.0005L29.8923 23.9233L29.9126 25.846L28.6205 26.5093C27.9097 26.874 27.3023 27.1716 27.2704 27.1705C27.2386 27.1695 26.4187 26.8102 25.4485 26.3721ZM29.5258 19.4354C29.3354 19.3424 28.9593 19.1683 28.69 19.0485C28.4207 18.9287 27.9097 18.6981 27.5545 18.536L26.9087 18.2414L26.8939 16.5534C26.8858 15.625 26.8516 14.8695 26.818 14.8744C26.7415 14.8858 25.531 15.5066 24.3143 16.1586C23.436 16.6292 23.3809 16.6479 23.1745 16.5457C23.0552 16.4865 22.3421 16.1667 21.5899 15.8348C20.8377 15.503 20.1977 15.2098 20.1676 15.1832C20.1376 15.1567 21.6515 14.3362 23.532 13.3596L26.951 11.5841L28.4115 12.3397C29.2147 12.7552 29.8977 13.1342 29.9292 13.1819C30 13.2891 29.9939 19.6192 29.9231 19.6107C29.895 19.6073 29.7162 19.5284 29.5258 19.4354ZM21.4379 12.0054C21.1846 11.8964 20.9313 11.7874 20.6781 11.6781C19.9135 11.3473 20.0633 11.3364 19.1537 11.7892C18.5478 12.0908 18.2866 12.1839 18.1733 12.1387C18.0882 12.1048 17.3565 11.7756 16.5469 11.4071C15.7375 11.0386 15.0471 10.7371 15.0128 10.7371C14.6732 10.7371 15.2378 10.3997 17.4165 9.30063L19.9716 8.0118L21.0467 8.54258C21.638 8.83451 22.8306 9.41911 23.697 9.84166C24.5634 10.2643 25.2615 10.6211 25.2485 10.6345C25.2353 10.6479 24.5094 11.0207 23.6352 11.4629L22.0458 12.2669L21.4379 12.0054Z" fill="#966CF2"/>
</g>
<defs>
<clipPath id="clip0_32_49">
<rect width="20" height="23" fill="white" transform="matrix(1 0 0 -1 10 31)"/>
</clipPath>
</defs>
</svg>
