<svg width="40" height="40" viewBox="0 0 40 40" fill="none" xmlns="http://www.w3.org/2000/svg">
<rect width="40" height="40" rx="20" fill="white"/>
<g clip-path="url(#clip0_139_9)">
<path fill-rule="evenodd" clip-rule="evenodd" d="M29.84 14.056C29.8836 13.7913 29.8555 13.5198 29.7585 13.2697C29.6615 13.0196 29.4992 12.8001 29.2885 12.634C29.0778 12.468 28.8265 12.3614 28.5606 12.3256C28.2948 12.2897 28.0242 12.3257 27.777 12.43L10.677 19.63C9.48503 20.132 9.42403 21.856 10.677 22.376C11.9177 22.8934 13.1765 23.3664 14.451 23.794C15.619 24.18 16.893 24.537 17.914 24.638C18.193 24.972 18.544 25.294 18.902 25.588C19.449 26.038 20.107 26.501 20.787 26.945C22.149 27.835 23.66 28.686 24.678 29.24C25.895 29.9 27.352 29.14 27.57 27.813L29.84 14.056ZM12.594 20.993L27.718 14.625L25.6 27.465C24.601 26.922 23.162 26.109 21.88 25.271C21.2892 24.8916 20.7187 24.4814 20.171 24.042C20.0246 23.9224 19.8825 23.7977 19.745 23.668L23.706 19.708C23.8937 19.5205 23.9991 19.2661 23.9992 19.0009C23.9993 18.7356 23.894 18.4811 23.7065 18.2935C23.519 18.1059 23.2647 18.0004 22.9994 18.0003C22.7341 18.0002 22.4797 18.1055 22.292 18.293L17.955 22.63C17.221 22.536 16.199 22.264 15.077 21.894C14.2417 21.6157 13.4141 21.315 12.595 20.992L12.594 20.993Z" fill="#966CF2"/>
</g>
<defs>
<clipPath id="clip0_139_9">
<rect width="24" height="24" fill="white" transform="translate(8 8)"/>
</clipPath>
</defs>
</svg>
